<?xml version="1.0" encoding="UTF-8" standalone="no"?>
<svg
   xmlns:dc="http://purl.org/dc/elements/1.1/"
   xmlns:cc="http://creativecommons.org/ns#"
   xmlns:rdf="http://www.w3.org/1999/02/22-rdf-syntax-ns#"
   xmlns:svg="http://www.w3.org/2000/svg"
   xmlns="http://www.w3.org/2000/svg"
   xmlns:xlink="http://www.w3.org/1999/xlink"
   xmlns:sodipodi="http://sodipodi.sourceforge.net/DTD/sodipodi-0.dtd"
   xmlns:inkscape="http://www.inkscape.org/namespaces/inkscape"
   height="68.55"
   version="1.2"
   viewBox="40.88 3.68 24.96 10.55"
   width="162.21"
   id="svg2"
   inkscape:version="0.48.4 r9939"
   sodipodi:docname="empty_stave.svg">
  <metadata
     id="metadata64">
    <rdf:RDF>
      <cc:Work
         rdf:about="">
        <dc:format>image/svg+xml</dc:format>
        <dc:type
           rdf:resource="http://purl.org/dc/dcmitype/StillImage" />
      </cc:Work>
    </rdf:RDF>
  </metadata>
  <defs
     id="defs62" />
  <sodipodi:namedview
     pagecolor="#ffffff"
     bordercolor="#666666"
     borderopacity="1"
     objecttolerance="10"
     gridtolerance="10"
     guidetolerance="10"
     inkscape:pageopacity="0"
     inkscape:pageshadow="2"
     inkscape:window-width="640"
     inkscape:window-height="480"
     id="namedview60"
     showgrid="false"
     inkscape:zoom="1.8001356"
     inkscape:cx="81.105003"
     inkscape:cy="34.275002"
     inkscape:window-x="0"
     inkscape:window-y="24"
     inkscape:window-maximized="0"
     inkscape:current-layer="svg2" />
  <!-- Page: 1/1 -->
  <text
     fill="currentColor"
     font-family="Century Schoolbook L"
     font-size="2.2001"
     text-anchor="start"
     transform="translate(42.6791, 2.8453)"
     id="text4">
    <tspan
       id="tspan6" />
  </text>
  <line
     stroke="currentColor"
     stroke-linecap="round"
     stroke-linejoin="round"
     stroke-width="0.1000"
     transform="translate(42.6791, 9.6213)"
     x1="0.0500"
     x2="19.6565"
     y1="-0.0000"
     y2="-0.0000"
     id="line12" />
  <line
     stroke="currentColor"
     stroke-linecap="round"
     stroke-linejoin="round"
     stroke-width="0.1000"
     transform="translate(42.6791, 8.6213)"
     x1="0.0500"
     x2="19.6565"
     y1="-0.0000"
     y2="-0.0000"
     id="line14" />
  <line
     stroke="currentColor"
     stroke-linecap="round"
     stroke-linejoin="round"
     stroke-width="0.1000"
     transform="translate(42.6791, 7.6213)"
     x1="0.0500"
     x2="19.6565"
     y1="-0.0000"
     y2="-0.0000"
     id="line16" />
  <line
     stroke="currentColor"
     stroke-linecap="round"
     stroke-linejoin="round"
     stroke-width="0.1000"
     transform="translate(42.6791, 6.6213)"
     x1="0.0500"
     x2="19.6565"
     y1="-0.0000"
     y2="-0.0000"
     id="line18" />
  <line
     stroke="currentColor"
     stroke-linecap="round"
     stroke-linejoin="round"
     stroke-width="0.1000"
     transform="translate(42.6791, 5.6213)"
     x1="0.0500"
     x2="19.6565"
     y1="-0.0000"
     y2="-0.0000"
     id="line20" />
  <rect
     fill="currentColor"
     height="4.0000"
     ry="0.0000"
     transform="translate(62.1956, 7.6213)"
     width="0.1900"
     x="0.0000"
     y="-2.0000"
     id="rect22" />
  <path
     d="M376 262c4 0 9 1 13 1c155 0 256 -128 256 -261c0 -76 -33 -154 -107 -210c-22 -17 -47 -28 -73 -36c3 -35 5 -70 5 -105c0 -19 -1 -39 -2 -58c-7 -120 -90 -228 -208 -228c-108 0 -195 88 -195 197c0 58 53 103 112 103c54 0 95 -47 95 -103c0 -52 -43 -95 -95 -95 c-11 0 -21 2 -31 6c26 -39 68 -65 117 -65c96 0 157 92 163 191c1 18 2 37 2 55c0 31 -1 61 -4 92c-29 -5 -58 -8 -89 -8c-188 0 -333 172 -333 374c0 177 131 306 248 441c-19 62 -37 125 -45 190c-6 52 -7 104 -7 156c0 115 55 224 149 292c3 2 7 3 10 3c4 0 7 0 10 -3 c71 -84 133 -245 133 -358c0 -143 -86 -255 -180 -364c21 -68 39 -138 56 -207zM461 -203c68 24 113 95 113 164c0 90 -66 179 -173 190c24 -116 46 -231 60 -354zM74 28c0 -135 129 -247 264 -247c28 0 55 2 82 6c-14 127 -37 245 -63 364c-79 -8 -124 -61 -124 -119 c0 -44 25 -91 81 -123c5 -5 7 -10 7 -15c0 -11 -10 -22 -22 -22c-3 0 -6 1 -9 2c-80 43 -117 115 -117 185c0 88 58 174 160 197c-14 58 -29 117 -46 175c-107 -121 -213 -243 -213 -403zM408 1045c-99 -48 -162 -149 -162 -259c0 -74 18 -133 36 -194 c80 97 146 198 146 324c0 55 -4 79 -20 129z"
     fill="currentColor"
     transform="translate(43.4791, 8.6213) scale(0.0040, -0.0040)"
     id="path50" />
  <a
     style="color:inherit;"
     xlink:href="textedit:///home/vsiivola/omat/vesamusictraining-dev/simple_html/media/tmp.ly:58:51:52"
     id="a52" />
  <a
     style="color:inherit;"
     xlink:href="textedit:///home/vsiivola/omat/vesamusictraining-dev/simple_html/media/tmp.ly:58:35:36"
     id="a56" />
</svg>
